<?xml version="1.0" encoding="UTF-8"?>
<!DOCTYPE svg PUBLIC "-//W3C//DTD SVG 1.1//EN" "http://www.w3.org/Graphics/SVG/1.1/DTD/svg11.dtd">
<!-- Creator: CorelDRAW -->
<svg xmlns="http://www.w3.org/2000/svg" xml:space="preserve" width="1000px" height="1000px" version="1.1" style="shape-rendering:geometricPrecision; text-rendering:geometricPrecision; image-rendering:optimizeQuality; fill-rule:evenodd; clip-rule:evenodd"
viewBox="0 0 1000 1000"
 xmlns:xlink="http://www.w3.org/1999/xlink"
 xmlns:xodm="http://www.corel.com/coreldraw/odm/2003">
 <defs>
  <style type="text/css">
   <![CDATA[
    .fil0 {fill:black}
   ]]>
  </style>
 </defs>
 <g id="Camada_x0020_1">
  <metadata id="CorelCorpID_0Corel-Layer"/>
  <path class="fil0" d="M540.39 759l-19.7 0c-15.56,-42.98 -36.66,-84.4 6.41,-121.68 13.61,-11.77 88.57,-65.6 92.12,-75.38 -62.61,-22.67 -290.38,-35.69 -367.85,-16.42 -15.9,3.94 -101.62,16.42 -118.23,16.42l0 -6.57c-5.83,-2.35 -10.86,-16.73 -13.14,-34.5l0 -39.65c2.46,-17.23 8.61,-32.02 20.11,-37.11 73.85,-32.65 329.29,-20.11 406.85,-20.11 -3.32,-3.34 -34.96,-20 -30.95,-43.01 9,-40.99 35.99,-37.99 61.98,-35.99 37.01,3 190.07,106.08 201.74,118.82 5.05,5.51 8.51,16.53 10.27,29.35l0 40.53c-1.38,9.75 -3.85,18.35 -7.45,24.08 -24.19,38.44 -235.1,181.72 -242.16,201.22z"/>
 </g>
</svg>
