<?xml version="1.0" encoding="UTF-8"?>
<!DOCTYPE svg PUBLIC "-//W3C//DTD SVG 1.1//EN" "http://www.w3.org/Graphics/SVG/1.1/DTD/svg11.dtd">
<!-- Creator: CorelDRAW -->
<svg xmlns="http://www.w3.org/2000/svg" xml:space="preserve" width="1000px" height="1000px" version="1.1" style="shape-rendering:geometricPrecision; text-rendering:geometricPrecision; image-rendering:optimizeQuality; fill-rule:evenodd; clip-rule:evenodd"
viewBox="0 0 1000 1000"
 xmlns:xlink="http://www.w3.org/1999/xlink"
 xmlns:xodm="http://www.corel.com/coreldraw/odm/2003">
 <defs>
  <style type="text/css">
   <![CDATA[
    .fil0 {fill:black}
   ]]>
  </style>
 </defs>
 <g id="Camada_x0020_1">
  <metadata id="CorelCorpID_0Corel-Layer"/>
  <g id="_1454038185024">
   <path class="fil0" d="M102.1 74.87c-0.57,0.21 -0.28,0.14 -0.46,0.24l-2.81 1.41c-1.75,0.71 -2.17,0.77 -3.37,2.72 -0.03,0.04 -0.06,0.1 -0.09,0.15l-0.2 0.27c-0.47,0.63 -0.54,0.25 -0.56,1.3l-0.94 0.24c-0.04,0.02 -0.09,0.07 -0.13,0.1 -0.76,0.55 -1.33,1.44 -1.64,2.34 -0.93,2.75 -0.24,3.62 -0.8,5.29l-1.17 3.99c-0.28,2.02 -0.01,195.18 -0.01,199.32l0 607.12c0,2.44 -0.38,6.28 0.29,8.14l0.3 0.88c0.02,0.06 0.04,0.12 0.06,0.17l0.35 1.52c0.02,0.07 0.03,0.13 0.05,0.19l0.37 1.27c0.04,0.5 -0.04,1.16 -0.03,1.67 0.01,0.24 0.01,0.4 0.06,0.64l0.53 1.58c0.45,1.34 1.51,2.18 2.47,3.15l1.72 2.03c0.03,0.04 0.06,0.1 0.09,0.15l1.85 1.66c0.04,0.03 0.1,0.05 0.15,0.08l5.01 2.01c0.62,0.32 0.99,0.61 1.72,0.63l0 1.87 498.44 0c0,-0.81 -0.23,-1.59 0.47,-1.87 0.35,-0.85 0.58,-0.33 1.57,-0.78 0.07,-0.03 0.24,-0.13 0.31,-0.16 0.04,-0.02 0.1,-0.06 0.15,-0.09 0.04,-0.02 0.1,-0.05 0.15,-0.07 0.05,-0.03 0.11,-0.06 0.16,-0.08l4.94 -2.09c1.33,-1.4 -0.04,-0.84 1.92,-2.06 0.04,-0.02 0.1,-0.06 0.14,-0.09 1.29,-0.86 1.4,-0.76 2.27,-1.72 0.11,-0.12 0.28,-0.32 0.32,-0.38 0.03,-0.04 0.06,-0.1 0.09,-0.14 1.98,-3.17 2.45,-1.77 4.07,-4.36l2.07 -2.15c1.21,-0.94 1.29,-0.69 2.15,-2.07 0.03,-0.04 0.06,-0.1 0.09,-0.14l1.38 -1.43c1.16,-1.19 1.3,-0.63 2.29,-2.16 0.21,-0.33 0.02,-0.02 0.31,-0.4 0.42,-0.57 0.43,-0.07 0.45,-1.18 0.63,-0.02 0.32,0.06 0.78,-0.16l1.12 -0.99c0.04,-0.03 0.1,-0.07 0.14,-0.09 0.42,-0.27 0.87,-0.46 1.17,-0.94 0.03,-0.04 0.05,-0.11 0.08,-0.16 0.02,-0.04 0.05,-0.11 0.08,-0.15l0.18 -0.29c0.76,-1.09 0.63,0.13 0.67,-1.44 0.63,-0.01 0.31,0.07 0.78,-0.15l3.12 -3.44c0.03,-0.05 0.06,-0.11 0.09,-0.15l4.67 -4.7c0.05,-0.04 0.2,-0.17 0.26,-0.21 0.04,-0.02 0.1,-0.06 0.14,-0.09l1.6 -1.21c0.12,-0.12 0.35,-0.35 0.36,-0.35 1.13,-1.15 0.72,-1.46 2.4,-2.51 0.75,-0.47 -0.38,0.32 0.28,-0.19 0.78,-0.61 1.39,-1.45 1.92,-2.3 0.13,-0.21 0.38,-0.49 0.53,-0.64 0.82,-0.86 2.47,-1.45 3.44,-3.11 0.12,-0.2 0.05,-0.11 0.16,-0.31 0.55,-0.93 1.5,-1.74 2.42,-2.27l6.28 -6.6c0.03,-0.04 0.08,-0.08 0.12,-0.12 0.03,-0.03 0.08,-0.08 0.12,-0.11l0.98 -0.89c2,-1.25 1.3,-1.37 3.12,-3.21 0.05,-0.05 0.18,-0.19 0.23,-0.24 0.01,-0.01 0.34,-0.35 0.35,-0.35 0.82,-0.77 1.19,-0.47 1.77,-1.51 0.32,-0.58 -0.01,-0.17 0.45,-0.72l1.53 -1.51c0.99,-1.01 1.64,-0.98 2.32,-2.14l0.76 -1.11c0.29,-0.51 0.36,-0.73 1.01,-1.09l3.92 -4.05c1.03,-0.63 2.25,-1.82 2.49,-2.2l0.24 -0.46c0.03,-0.04 0.06,-0.1 0.08,-0.15 0.09,-0.13 0.23,-0.33 0.3,-0.4l2.95 -2.44c0.81,-0.82 1.14,-1.86 2.09,-2.59 1.97,-1.51 1.46,-0.67 2.63,-2.53l4.63 -4.73c2.27,-2.22 1.93,-1.11 2.78,-2.61l2.14 -2.32c0.98,-1 1.1,-0.39 2.17,-2.04 0.74,-1.15 0.73,-0.11 0.76,-1.58 0.63,-0.01 0.32,0.06 0.79,-0.16 0.46,-0.21 0.69,-0.77 1.09,-1.01l0.93 -0.24c0.01,-0.29 -0.02,-0.19 0.05,-0.42l0.81 -1.3c0.77,-1.28 2.07,-1.91 3.13,-2.96 0.05,-0.06 0.2,-0.2 0.35,-0.35 0.34,-0.32 0.08,-0.03 0.35,-0.35 0.46,-0.53 0.14,-0.13 0.47,-0.71 0.02,-0.04 0.05,-0.11 0.08,-0.15 0.02,-0.05 0.05,-0.11 0.08,-0.15 0.7,-1.15 2.47,-1.56 3.66,-3.6 0.21,-0.35 0.01,-0.09 0.27,-0.43l1.22 -1.13c0.3,-0.18 0.19,-0.08 0.46,-0.24l1.37 -1.21c0.53,-0.68 -0.3,0.5 0.19,-0.28l0.51 -0.89c0.27,-0.34 0.17,-0.18 0.34,-0.36l2.81 -2.35c0.82,-1.2 1.73,-2.52 2.93,-3.39 0.49,-0.37 -0.18,-0.31 1.07,-0.34 0.02,-0.85 0.48,-1.28 0.77,-2.04l0.55 -1.56c0.03,-0.06 0.12,-0.24 0.16,-0.31l0.23 -0.46c0.09,-0.18 0.23,-0.45 0.31,-0.63l1.38 -2.61c0.01,-0.05 0.04,-0.11 0.06,-0.17 0.02,-0.05 0.04,-0.11 0.06,-0.17 0.05,-0.14 0.06,0.07 0.18,-0.52 0.13,-0.63 0.27,-393.4 0.04,-418.76 -0.01,-1.76 0.36,-2.23 0.47,-3.52 0.04,-0.44 -0.02,-0.38 0.09,-0.84l0.73 -1.38c0.76,-0.73 -0.07,0.02 0.74,-0.44 0.04,-0.02 0.11,-0.05 0.15,-0.08l1.46 -1.35c0.05,-0.05 0.19,-0.19 0.23,-0.24l0.6 -1.03c0.49,-0.71 1.21,-1.2 1.32,-1.27 0.3,-0.19 0.19,-0.08 0.46,-0.24l1.03 -0.84c0.06,-0.06 0.41,-0.46 0.44,-0.5l1.41 -1.86c2.01,-2.02 0.78,0.18 2.84,-2.79 0.04,-0.06 0.21,-0.26 0.32,-0.38 3.33,-3.57 7.02,-7 10.44,-10.41 0.3,-0.31 0.62,-0.63 0.93,-0.94 0.3,-0.29 0.76,-0.7 1.01,-1.1l3.66 -3.6c0.46,-0.67 0.75,-1.35 1.5,-1.78l0.46 -0.24c0.95,-0.59 1.76,-1.69 1.96,-2.03l0.65 -0.98c0.03,-0.04 0.08,-0.09 0.12,-0.12 0.69,-0.73 1.67,-1.12 2.37,-1.85l0.22 -0.24c0.05,-0.05 0.17,-0.2 0.21,-0.26 0.03,-0.04 0.06,-0.1 0.09,-0.14 1.66,-2.65 1.96,-1.77 3.69,-3.57l0.77 -1.11c0.6,-1.02 1.6,-1.74 2.57,-2.35 0.04,-0.03 0.1,-0.06 0.14,-0.09 0.06,-0.04 0.26,-0.21 0.39,-0.32 0.78,-0.72 1.1,-1.62 1.85,-2.36l1.68 -1.6c0.06,-0.02 0.12,-0.04 0.18,-0.06 0.35,-0.12 0.21,-0.08 0.61,-0.09l0.23 -0.94c0.51,-0.86 6.98,-7.03 8.2,-8.19 0.04,-0.04 0.09,-0.08 0.13,-0.11 0.57,-0.55 0.78,-0.32 0.81,-1.54 0.39,0 0.26,0.04 0.61,-0.09 0.04,-0.01 0.12,-0.04 0.17,-0.06 0.04,-0.02 0.11,-0.05 0.15,-0.08 1.2,-0.71 2.88,-3.51 3.74,-3.99 0.66,-0.36 2.34,-1.71 3.13,-2.97l3.74 -3.74c0.03,-0.05 0.06,-0.11 0.09,-0.15 1.09,-1.89 2.41,-1.7 3.99,-4.21l3.42 -3.14c0.03,-0.04 0.06,-0.1 0.08,-0.15l1.02 -1.33c0.17,-0.17 0.3,-0.29 0.47,-0.46 0.05,-0.06 0.19,-0.21 0.34,-0.36l0.91 -0.73c0.27,-0.16 0.03,-0.01 0.31,-0.16l3.34 -3.69c0.03,-0.03 0.08,-0.09 0.12,-0.12 0.14,-0.1 0.12,-0.11 0.29,-0.18 0.47,-0.21 0.14,-0.14 0.78,-0.15 0.01,-0.63 -0.07,-0.32 0.15,-0.78l0.66 -0.75c0.03,-0.04 0.08,-0.08 0.12,-0.12l8.68 -9.12c0.44,-0.53 1.21,-0.74 1.98,-1.53l1.69 -2.06c0.02,-0.05 0.06,-0.11 0.08,-0.15 0.56,-0.83 1.65,-1.18 2.34,-1.88l1.62 -1.89c0.36,-0.63 0.78,-0.76 1.4,-1.18 0.05,-0.04 0.26,-0.21 0.38,-0.33l2.53 -2.85c0.02,-0.05 0.05,-0.11 0.08,-0.16 0.03,-0.04 0.06,-0.1 0.09,-0.14l1.86 -1.41c1.31,-1.11 1.79,-2.76 3.35,-3.68 0.67,-0.39 1.33,-0.84 1.78,-1.5 0.03,-0.04 0.06,-0.1 0.09,-0.15l3.42 -3.37c1.32,-0.91 2.32,-2.46 3.53,-3.5 0.62,-0.53 -0.1,-0.16 0.71,-0.46l0 -2.81c-0.49,-0.2 -1.22,-1.95 -1.87,-2.58 -0.04,-0.03 -0.09,-0.08 -0.12,-0.11l-0.36 -0.35c-0.55,-0.52 -0.92,-0.88 -0.93,-1.65 -0.39,0 -0.26,0.04 -0.61,-0.09l-0.46 -0.24c-0.04,-0.03 -0.09,-0.08 -0.12,-0.11l-1.32 -1.73c-0.02,-0.05 -0.06,-0.11 -0.09,-0.15l-1.17 -1.17c-0.04,-0.03 -0.1,-0.06 -0.14,-0.09l-1.41 -0.94c-0.21,-0.14 -0.12,-0.1 -0.44,-0.26l-0.68 -0.25c-1.25,-0.42 -0.69,0.33 -1.06,-0.59l-0.93 0c-0.37,0.91 0.12,0.15 -0.7,0.47l-2 1.53c-0.47,0.47 -0.7,0.7 -1.17,1.16l-1.29 1.53c-0.95,1.68 -3.12,3.35 -4.45,4.68l-8.32 8.31c-0.58,0.55 -0.78,0.31 -0.81,1.53 -1.12,0.02 -3.03,2.08 -3.59,2.98l-1.41 1.63c-1.92,1.1 -2.42,2.57 -4.14,4.29 -1.24,1.25 -2.47,2.78 -3.86,3.86l-2.81 2.82c-0.16,0.17 -0.28,0.28 -0.35,0.35 -0.23,0.22 -0.48,0.47 -0.71,0.7l-18.15 18.15c-0.84,0.82 -1.14,1.74 -2.14,2.31l-2.58 2.58c-0.53,0.91 -0.69,1.53 -1.96,1.56l0 0.93c-0.55,0.01 -0.35,-0.08 -0.79,0.14 -0.57,0.29 -0.61,0.92 -0.96,1.38l-2.44 2.01c-0.71,0.49 -1.2,1.21 -1.26,1.32l-0.74 1.13c-0.05,0.05 -0.19,0.19 -0.24,0.24l-1.4 1.4c-0.07,0.08 -0.57,0.57 -0.6,0.58l-0.93 0.23c-0.03,1.26 -0.4,1.13 -1.06,1.76 -6.73,6.49 -13.11,13.28 -19.79,19.79 -0.05,0.05 -0.24,0.23 -0.36,0.35l-0.66 0.74c-0.21,0.48 -0.14,0.15 -0.15,0.79 -1.15,0.02 -1.92,1.24 -2.7,1.99l-0.48 0.45c-0.07,0.06 -0.4,0.49 -0.42,0.52 -0.21,0.48 -0.14,0.14 -0.15,0.78 -1.11,0.03 -1.83,1.14 -2.58,1.88l-3.98 4.22c-0.9,1.6 -16.72,16.99 -20.27,20.48 -0.64,0.63 -0.84,1.49 -1.58,1.93 -1.65,0.98 -6.89,6.26 -7.73,7.73 -0.02,0.05 -0.05,0.12 -0.07,0.16l-0.64 0.53c-0.35,0.12 -0.25,0.07 -0.63,0.08 -0.01,0.78 -0.38,1.12 -0.93,1.65 -7.23,6.88 -14.14,14.13 -21.2,21.19 -0.71,0.7 -1.17,1.17 -1.88,1.87l-1.87 1.88c-0.69,0.9 0.13,0.63 -1.59,1.69l-4.55 4.82c-1.69,1.03 -0.92,0.81 -1.59,1.68 -1.21,1.58 -20.13,20.16 -23.89,23.9 -0.26,0.26 -0.18,0.19 -0.47,0.46 -0.03,0.04 -0.08,0.08 -0.12,0.12 -0.55,0.52 -0.91,0.86 -0.93,1.64l-2.11 1.41c-0.16,0.16 -0.31,0.31 -0.47,0.47l-1 1.1c-0.03,0.04 -0.06,0.1 -0.08,0.15 -0.04,0.06 -0.12,0.26 -0.16,0.32 -0.4,0.68 -1.37,1.06 -1.45,1.12l-2.76 3.09c-0.41,0.68 -0.63,0.6 -1.18,0.94l-0.64 0.53c-0.96,0.94 -1.49,2 -2.45,2.94 -0.53,0.51 -1.21,1.52 -1.91,1.83 -0.47,0.21 -0.14,0.14 -0.78,0.16 -0.02,0.7 -0.31,1.05 -0.81,1.53l-19.22 19.19c-0.12,0.12 -0.43,0.42 -0.48,0.46 -0.04,0.05 -0.18,0.2 -0.22,0.25 -0.95,1.22 -0.62,1.25 -2.06,2.15l-2.12 2.34c-0.75,1.29 -2.15,1.83 -3.2,2.88 -0.11,0.11 -0.28,0.26 -0.36,0.35 -0.05,0.05 -0.18,0.19 -0.22,0.24l-0.71 1.17c-0.04,0.06 -0.17,0.2 -0.22,0.25l-4.34 4.32c-0.39,0.38 -0.96,1.13 -1.5,1.31 -0.35,0.12 -0.22,0.09 -0.61,0.1 -0.04,1.38 -2.2,2.9 -3.05,3.74 -1.9,1.9 -16.94,16.42 -18.11,18.43l-1.95 1.8c-0.35,0.2 -0.89,0.5 -1.47,1.34l-0.94 1.4c-0.02,0.01 -0.23,0.2 -0.36,0.34l-0.98 0.9c-0.47,0.21 -0.14,0.14 -0.78,0.15 -0.02,0.65 -0.11,0.83 -0.57,1.31 -7.57,7.8 -15.42,15.38 -23.09,23.05 -0.65,0.65 -1.44,1.24 -1.94,2.04 -0.62,0.98 -0.92,1.27 -1.88,1.87 -0.78,0.49 -1.6,1.42 -2.04,2.18 -0.02,0.05 -0.05,0.11 -0.07,0.16l-0.5 0.67c-0.03,0.04 -0.08,0.09 -0.11,0.12 -0.04,0.04 -0.09,0.09 -0.12,0.12 -0.49,0.51 -0.84,0.79 -1.54,0.81l0 0.93c-0.56,0.02 -0.35,-0.07 -0.79,0.15 -0.65,0.33 -0.88,1.31 -1.42,1.85l-28.07 28.15c-0.4,0.65 -0.34,0.82 -1.1,1.25l-3.39 3.63c-0.03,0.04 -0.08,0.09 -0.11,0.12l-0.74 0.67c-0.04,0.03 -0.1,0.06 -0.14,0.09l-28.18 28.27c-0.78,0.79 -1.94,1.69 -2.5,2.66 -0.47,0.8 -0.92,1.53 -1.95,1.56l0 0.94c-0.56,0.01 -0.95,0.13 -1.26,0.61 -0.97,1.5 -1.72,2.33 -3.26,3.3 -1.05,0.65 -1.94,2.31 -2.98,3.35 -2.5,2.49 -5,4.99 -7.49,7.49l-17.02 17.18c-0.05,0.03 -0.11,0.06 -0.15,0.09 -0.8,0.49 -1.26,1.25 -1.74,2.01l-28.71 28.9c-0.44,0.72 -0.4,0.84 -1.25,1.33l-4.7 4.9c-0.05,0.03 -0.11,0.06 -0.16,0.08 -0.47,0.28 -0.65,0.24 -1.01,0.86l-0.24 0.47c-0.52,0.85 -1.45,1.58 -2.17,2.28 -0.08,0.09 -0.4,0.38 -0.49,0.44l-0.3 0.17c-1.61,0.91 -0.83,1.44 -2.85,3.01 -0.66,0.52 0.48,-0.28 -0.28,0.19 -0.04,0.03 -0.1,0.06 -0.15,0.08l-1.68 1.36c-0.5,0.5 0,-0.11 -0.46,0.48 -1.37,1.77 0.24,0.32 -3.52,3.98 -1.52,1.49 -0.49,1.28 -2.28,2.4l-1.72 1.09c-0.87,0.3 -2.6,0.26 -3.45,-0.01l-6.48 -1.75c-1.74,0 -1.54,0.51 -3.27,0.51 -0.62,0 -1.25,-0.01 -1.88,-0.01l-4.46 -0.7 -2.34 -1.88c-0.31,-0.31 -0.62,-0.63 -0.94,-0.94l-18.11 -18.19c-0.21,-0.47 -0.14,-0.14 -0.15,-0.78 -1.07,-0.02 -1.86,-0.8 -1.88,-1.87 -0.36,-0.01 -0.28,0.04 -0.62,-0.08l-1.95 -2.27c-2.68,-2.62 -14.21,-13.73 -15.31,-15.61l-2.73 -2.43c-0.04,-0.02 -0.11,-0.05 -0.15,-0.07l-0.95 -0.46c-1.25,-0.48 -2.25,-0.63 -3.82,-0.64l-2.13 0.22c-0.05,0.03 -0.1,0.06 -0.15,0.08 -0.05,0.02 -0.11,0.06 -0.15,0.08 -0.07,0.04 -0.25,0.14 -0.31,0.17l-2.18 1.33 0 2.34c-1.12,0.46 0.39,0.87 -2.34,3.51 -0.27,0.26 -0.24,0.2 -0.48,0.47 -0.54,0.62 -0.22,0.08 -0.64,1 -0.3,0.65 -0.21,1.29 -0.34,2l-0.72 2.09c0,0.01 -0.18,0.36 -0.24,0.46 -0.66,1.32 -0.84,1.32 -1.8,2.41l-0.31 0.4c-0.03,0.04 -0.06,0.1 -0.09,0.15l-0.38 0.78c-0.68,1.34 -0.73,2.85 -1.19,4.2 -0.02,0.06 -0.04,0.12 -0.06,0.18l-1.12 1.68c-0.2,0.2 -0.24,0.23 -0.36,0.35 -0.59,0.57 -1.21,1.16 -1.49,2.02 -0.19,0.56 -0.08,0.14 -0.14,0.8l-0.52 2.75c-0.18,0.72 -0.94,1.61 -1.15,1.91 -0.5,0.71 -1.32,1.27 -1.71,2.03l-1.09 2.66c-0.02,0.06 -0.04,0.11 -0.06,0.17 -0.02,0.06 -0.04,0.12 -0.06,0.18l-0.87 4.51c-0.11,0.34 -0.16,0.07 -0.17,0.77 -0.68,0.02 -0.32,0 -0.79,0.15l-2.4 2.52c-0.34,0.58 -0.53,0.87 -1.16,1.18 -1.71,0.86 -6.94,0.37 -9.24,0.37l-89.71 0c-3.57,0 -16.48,0.65 -18.97,-0.24 -0.95,-0.34 -3.04,-0.41 -4.17,-0.19l-2.18 0.87c-0.04,0.03 -0.41,0.48 -0.43,0.5 -0.03,0.04 -0.07,0.1 -0.09,0.15 -0.03,0.04 -0.07,0.1 -0.09,0.14l-0.65 1.7c-0.53,1.55 -0.35,3.28 -0.35,5.03 0,11.95 0,23.89 0,35.84 0,1.35 -0.22,3.11 0.15,4.29 0.02,0.08 0.11,0.27 0.13,0.34l2.82 3.28c0.61,0.28 2.48,0.44 3.41,0.24 1.13,-0.25 1.29,-0.44 2.62,-0.43 23.89,0.26 47.79,0.01 71.68,0.01l13.35 0c1.07,0 2.45,-0.23 3.52,-0.01 0.71,0.15 0.45,-0.14 0.69,0.47 0.66,0.27 0.45,-0.21 0.5,1.15 0.07,1.72 -0.22,3.12 -0.6,4.6 -0.02,0.07 -0.04,0.12 -0.06,0.18l-0.93 2.35c-0.24,0.37 -0.53,0.62 -0.78,0.86 -2.06,2.01 -1.3,0.98 -2.11,3.51 -0.02,0.06 -0.05,0.11 -0.07,0.17 -0.02,0.05 -0.05,0.11 -0.06,0.17 -0.61,2.38 0.21,2.43 -1.86,4.47 -1.89,1.86 -1.43,1.53 -2.16,3.93 -0.02,0.05 -0.05,0.11 -0.07,0.16 -0.66,2.11 -0.57,2.76 -2.11,4.45 -0.86,0.95 -1.18,2.1 -0.89,3.47 0.25,1.2 0.83,1.99 1.44,3.02l2.1 2.11c0.06,0.04 0.25,0.13 0.31,0.16l2.19 0.86c0.33,0.03 1.56,0.03 1.9,0l5.91 -2.52c0.08,-0.02 0.27,-0.1 0.34,-0.12l3.09 -1.37c0.75,-0.54 1.27,-1.42 2.04,-1.94l0.93 -0.48c1.74,-0.58 1.98,0.31 4.38,-1.23 0.36,-0.23 0.62,-0.53 0.86,-0.78l0.93 -0.95c0.61,-0.53 0.11,-0.23 1.01,-0.63 0.42,-0.19 0.01,-0.03 0.5,-0.2 4.8,-1.63 3.27,0.44 7.51,-3.97 1.19,-1.25 2.93,-0.94 4.36,-1.73 0.37,-0.21 0.26,-0.12 0.57,-0.37l0.6 -0.57c0.03,-0.04 0.08,-0.09 0.11,-0.12l0.82 -1.29c0.11,-0.17 0.64,-0.68 0.86,-0.78 0.69,-0.32 0.98,-0.02 1.23,-0.64l3.75 0c0.08,-0.2 0.34,-0.91 1.41,-0.93 0.03,-1.28 1.49,-1.77 1.87,-2.81l3.75 0c0.3,-0.75 0.39,0.23 2.7,-1.99l0.24 -0.23c0.05,-0.05 0.19,-0.18 0.24,-0.23 0.46,-0.47 0.55,-0.66 0.57,-1.3 1.58,-0.04 0.89,-0.5 2.57,-0.48 0.51,0.01 1.1,0.06 1.6,-0.03l1.23 -0.41c0.89,-0.29 1.54,-0.92 2.01,-1.74 1.78,-3.07 3.92,-1.31 6.19,-2.24 0.06,-0.02 0.11,-0.05 0.16,-0.07l2.75 -2.88c0.29,-0.36 0.17,-0.09 0.35,-0.59l4.22 0c0.23,-0.55 0.68,-0.49 1.38,-0.49 42.32,-0.16 84.65,0.03 126.98,0.03 6.32,0 70.81,-0.32 72.27,0.1 0.06,0.01 0.12,0.04 0.17,0.06l0.5 0.21c0.95,0.27 3.78,0.25 4.78,0.05 1.08,-0.22 2.14,-0.54 2.64,-1.81 0.36,-0.89 0.37,-2.32 0.16,-3.25 -0.23,-1.1 -0.04,-0.04 -0.25,-0.68 -0.54,-1.59 -0.09,-32.63 -0.19,-39.44 -0.01,-0.78 -0.15,-1.36 0.49,-1.62l0 -4.22c-0.41,-0.14 -0.23,-0.09 -0.45,-0.25l-0.96 -1.15 -8.43 0c-0.35,0.89 -0.82,0.47 -3.04,0.47 -36.78,-0.08 -73.57,0.16 -110.35,0.02 -0.14,0 -0.77,-0.03 -0.87,-0.06 -0.64,-0.22 -0.25,0.21 -0.51,-0.43 -0.3,-0.12 -0.85,0.26 -0.46,-2.57l1.15 -2.13c0,0 0.28,-0.26 0.36,-0.34l2.81 -2.81c0.12,-0.11 0.34,-0.35 0.35,-0.36 0.18,-0.18 0.01,-0.07 0.36,-0.34l1.03 -0.61c1.01,-0.69 2.06,-2.43 2.25,-2.67l1.83 -1.45c1.79,-1.13 2.42,-3.4 4.22,-4.44 0.26,-0.15 0.17,-0.07 0.46,-0.24l0.94 -0.94c0.03,-0.04 0.05,-0.11 0.08,-0.15l3.76 -3.74c0.14,-0.25 0.04,-0.15 0.23,-0.47 0.61,-1 1.71,-1.78 2.52,-2.63l0.75 -0.66c0.47,-0.21 0.14,-0.14 0.78,-0.15 0.03,-1.26 0.4,-1.13 1.06,-1.76l2.93 -2.93c0.61,-0.6 1.15,-0.93 1.17,-1.87 0.71,-0.02 1.05,-0.31 1.53,-0.81l2.68 -3.41c1.28,-0.03 2.23,-1.52 3.05,-2.34 1.09,-1.09 3.95,-3.54 4.75,-4.85 0.6,-0.97 0.43,-0.81 1.41,-1.41 0.31,-0.18 0.49,-0.38 0.76,-0.64l1.02 -1.08c0.03,-0.04 0.07,-0.11 0.09,-0.15 1.41,-2.23 2.58,-2.04 3.66,-3.6l0.51 -0.9c0.67,-0.97 1.61,-1.51 2.54,-2.14l1.03 -1.31c0.48,-0.82 1.36,-1.49 2.02,-2.19 0.04,-0.04 0.08,-0.09 0.12,-0.13 0.55,-0.58 0.31,-0.78 1.53,-0.81 0.03,-1.23 0.31,-1.05 0.93,-1.64 0.05,-0.05 0.19,-0.19 0.24,-0.23 1.98,-1.93 7.07,-7.48 8.68,-8.65 0.78,-0.57 1.54,-0.58 2.45,-0.83 0.06,-0.02 0.12,-0.04 0.18,-0.06l1.56 -0.31c2.71,-0.02 3.14,-0.72 4.92,-0.45 1.11,0.17 0.38,0.11 0.71,0.23 0.22,0.07 -0.19,0.03 0.52,0.18 0,0 168.83,0.34 170.43,0.01l0.83 -0.34c0.57,-0.3 0.84,-0.54 1.55,-0.55l0.17 -0.78c0.01,-0.05 0.04,-0.12 0.06,-0.17l0.36 -1.05c0.02,-0.05 0.04,-0.11 0.06,-0.17 0.69,-1.89 0.29,-21.17 0.29,-23.6l0 -19.91c0,-1.13 0.21,-2.86 -0.15,-3.84l-0.63 -1.23c-0.17,-0.48 -0.14,-0.11 -0.16,-0.79 -1.57,-0.03 -0.65,-0.43 -1.91,-0.9 -0.07,-0.02 -0.29,-0.07 -0.36,-0.1l-0.52 -0.18c-1.71,-0.58 -25.79,-0.22 -27.89,-0.22 -6.49,0 -88.56,-0.26 -90.4,0.01 -1.02,0.15 -1.09,0.98 -2.77,0.17 -0.66,-0.32 -1.05,-0.89 -1.69,-1.12l0 -2.34c0.63,-0.26 0.13,0.03 0.47,-0.47l0.24 -0.46c0.02,-0.05 0.05,-0.11 0.07,-0.16l2.25 -2.67c0.66,-0.56 1.25,-0.73 1.89,-1.39 0.82,-0.84 2.63,-3 3.51,-3.51l0.94 -0.24c0.02,-1.26 0.4,-1.13 1.05,-1.76l3.77 -3.73c0.1,-0.14 0.1,-0.13 0.17,-0.29 0.22,-0.47 0.15,-0.14 0.16,-0.78l0.78 -0.15c1.34,-0.63 3.23,-3.86 4.06,-4.37 0.35,-0.21 0.27,-0.11 0.62,-0.33l1.34 -1.23c0.09,-0.09 0.38,-0.4 0.44,-0.5l3.54 -3.48c1.16,-1.38 1.16,-2.09 2.96,-3.14l1.97 -2.24c0.24,-0.34 0.46,-0.51 0.8,-0.84 0.37,-0.38 0.55,-0.62 0.99,-0.89 0.6,-0.38 1.16,-0.63 1.55,-1.26 0.02,-0.04 0.05,-0.11 0.08,-0.15 1.06,-1.87 12.84,-13.2 15.77,-16.09 0.08,-0.07 0.19,-0.18 0.36,-0.34 0.53,-0.53 -0.01,0.13 0.46,-0.48 0.5,-0.65 -0.27,0.47 0.19,-0.28 0.35,-0.57 0.32,-0.81 0.93,-1.17 0.06,-0.03 0.26,-0.12 0.32,-0.15 0.04,-0.03 0.11,-0.06 0.15,-0.08 1.35,-0.83 2.07,-2.3 2.97,-3.36l0.46 -0.47c0.06,-0.06 0.46,-0.41 0.5,-0.44 0.04,-0.03 0.1,-0.06 0.15,-0.09l2.18 -1.79c1.27,-1.49 0.35,-1.01 2.32,-2.37l4.53 -4.14 1.88 -0.47c1.26,-0.4 2.21,-0.2 3.78,-0.67 0.29,-0.08 0.5,-0.13 0.84,-0.13 1.37,0 1.48,0.53 3.03,0.52 2.73,-0.03 46.13,0.27 47.75,-0.06l2.25 -0.79c0.98,-0.46 1.26,-1.35 1.6,-2.39 0.86,-2.6 0.41,-23.63 0.41,-28.39 0,-2.22 0.29,-16.35 -0.04,-17.99 -0.22,-1.1 0.01,0.07 -0.25,-0.7 -0.47,-1.39 -0.27,-1.32 -2.36,-2.55l-2.5 -1.49 0 -2.34c0.57,-0.23 0.29,-0.28 0.52,-0.88 0.21,-0.54 -0.11,0.05 0.21,-0.5l3.85 -3.41c0.03,-0.03 0.08,-0.08 0.12,-0.11l5.36 -5.88c0.88,-0.89 2.46,-1.75 2.97,-2.65 0.03,-0.04 0.06,-0.11 0.08,-0.15l4.57 -4.8c0.4,-0.52 0.16,-0.18 0.58,-0.59 1.56,-1.52 2.98,-2.98 4.57,-4.57 1.65,-1.64 3.05,-3.04 4.69,-4.68l5.9 -6.75c0.97,-1.58 2.58,-1.57 4.52,-1.57l0.56 1.08c0.24,0.46 0.5,0.9 0.4,1.49 -0.19,1.14 0.26,0.41 -0.49,0.71l0 340.1c-0.5,0.19 -0.23,0 -0.58,0.36 -0.34,0.35 -0.17,0.08 -0.35,0.58l-116.65 0c-0.26,0.64 -0.78,0.38 -1.54,0.57l-2.37 1.14c-0.01,0 -0.46,0.23 -0.47,0.23l-1.86 1.42c-0.05,0.03 -0.11,0.06 -0.15,0.09l-0.53 0.41c-0.31,0.22 -0.19,0.16 -0.57,0.37 -0.06,0.03 -0.25,0.12 -0.32,0.15l-0.32 0.14c-0.05,0.03 -0.11,0.05 -0.16,0.08 -0.06,0.03 -0.25,0.12 -0.31,0.16 -0.04,0.02 -0.1,0.05 -0.15,0.08l-1.31 1.26c-0.77,1.08 -1.1,2.47 -1.82,3.58l-2.08 3.3c-0.51,1.5 -0.29,1.25 -0.62,2.89 -0.18,0.93 -0.38,0.6 -0.43,1.68 -0.03,0.73 0.02,1.61 0.02,2.36l0 100.25c0,0.99 -0.21,2.3 -0.01,3.28 0.15,0.72 -0.14,0.45 0.48,0.7l0 3.28c-1.28,0.46 -0.5,1.06 -2.55,1.44 -0.07,0.01 -0.13,0.02 -0.2,0.03 -0.06,0.02 -0.12,0.03 -0.19,0.05l-0.34 0.12c-1.82,0.61 -19.46,0.24 -22.02,0.24l-397.02 0c-2.01,0 -6.9,0.36 -8.67,-0.24l-0.34 -0.12c-1.69,-0.46 -0.87,0.04 -2.35,-1.16 -0.37,-0.3 -0.09,-0.18 -0.59,-0.36l0 -774.83c0.98,-0.39 -0.27,-0.23 1.41,-2.1 0.56,-0.63 0.17,0.1 0.47,-0.71l562.15 0c0.27,0.68 1.01,0.42 1.72,1.56 0.72,1.15 1.41,2.33 1,3.72 -0.59,1.99 -0.38,2.19 -0.38,4.56l-0.04 144.24c-0.37,1.89 -2.34,2.82 -3.35,4.14 -0.28,0.36 -0.06,0.06 -0.27,0.44 -0.04,0.06 -0.12,0.25 -0.16,0.31 -0.02,0.05 -0.05,0.11 -0.08,0.15l-2.78 2.37c-0.34,0.33 -0.08,0.04 -0.35,0.36 -0.05,0.05 -0.17,0.2 -0.21,0.26 -0.37,0.53 -0.63,1.21 -1.21,1.6 -0.04,0.03 -0.1,0.06 -0.14,0.09 -0.05,0.03 -0.11,0.06 -0.15,0.08l-3.92 4.05c-0.04,0.03 -0.1,0.06 -0.15,0.09l-2.19 1.79c-0.05,0.07 -0.22,0.28 -0.3,0.4l-2.48 2.44c-0.04,0.02 -0.44,0.37 -0.5,0.43l-2.82 3.28c-0.04,0.03 -0.1,0.06 -0.14,0.09 -0.05,0.02 -0.11,0.05 -0.15,0.08 -0.26,0.15 -0.17,0.06 -0.46,0.24l-1.45 1.83c-0.59,0.75 -2.34,2.67 -3.4,2.69 -0.03,1.21 -1.35,2.05 -2.11,2.81 -0.86,0.86 -1.72,1.72 -2.58,2.58 -0.83,0.83 -1.57,1.57 -2.46,2.46 -0.49,0.5 -0.83,0.85 -1.29,1.28 -0.03,0.04 -0.09,0.08 -0.12,0.11 -0.58,0.55 -0.78,0.32 -0.81,1.54 -0.63,0.01 -0.32,-0.07 -0.78,0.15l-0.98 0.9c-0.26,0.27 -0.37,0.38 -0.58,0.59l-1.06 1.05c-0.5,0.66 0.28,-0.47 -0.18,0.28 -0.35,0.57 -0.3,0.79 -0.94,1.17 -0.06,0.04 -0.25,0.12 -0.32,0.16 -0.04,0.02 -0.1,0.05 -0.15,0.08l-5.56 5.45c-0.82,0.83 -1.34,1.93 -2.2,2.71l-3.1 2.76c-0.89,1.53 -2.57,2.1 -3.44,3.59l-1.08 1.26c-0.65,0.66 -1.1,0.83 -1.94,1.1l-1.06 0.35c-0.05,0.02 -0.11,0.04 -0.17,0.06 -0.06,0.02 -0.12,0.05 -0.17,0.07 -1.43,0.51 -1.67,0.09 -3.15,0.59 -1.5,0.5 -76.32,0.16 -81.82,0.16l-377.35 0c-3.02,0 -2.11,0.1 -4.49,-0.42 -0.34,-0.07 -0.76,-0.06 -1.11,-0.06 -1.04,0 -2.2,-0.16 -3.2,0.11 -0.06,0.01 -0.12,0.04 -0.18,0.06l-0.33 0.13c-0.98,0.35 -2.3,0.63 -2.86,1.6l-0.24 0.69c-0.32,0.83 0.44,0.34 -0.47,0.71l0 46.37c0.84,0.3 0.13,0.08 0.96,0.68 0.04,0.03 0.1,0.07 0.14,0.1 1.22,0.82 2.55,0.63 4.06,0.63l404.51 0c2.07,0 6.94,0.27 8.89,-0.01 1.83,-0.27 0.01,-0.46 3.99,-0.46l0.65 2.03c-0.03,0.14 -0.06,0.16 -0.14,0.56l-0.6 1.77c-0.02,0.05 -0.05,0.11 -0.08,0.15 -0.02,0.05 -0.06,0.11 -0.07,0.16l-0.23 0.95c-0.65,0.01 -0.82,0.1 -1.3,0.58 -0.72,0.7 -1.21,0.66 -1.73,1.3 -0.03,0.04 -0.07,0.1 -0.09,0.15l-1.73 2.02c-1.13,0.72 -2.06,1.53 -2.72,2.66 -0.2,0.33 -1.03,1.45 -1.96,2.03l-1.55 1.26c-0.54,0.88 -1.2,1.8 -2.05,2.4 -0.04,0.02 -0.1,0.06 -0.15,0.08 -0.04,0.03 -0.1,0.06 -0.15,0.09l-3.08 3.24c-0.69,0.7 -1.69,1.04 -2.15,1.83 -0.04,0.06 -0.12,0.25 -0.16,0.31l-13.41 13.76c-0.12,0.36 -0.08,0.22 -0.09,0.61 -0.63,0.02 -0.32,-0.06 -0.78,0.16 -0.92,0.42 -2.59,2.47 -3.05,3.28l-0.17 0.3c-0.15,0.23 -0.28,0.39 -0.56,0.6 -0.52,0.4 0.3,-0.17 -0.29,0.19 -0.95,0.58 -1.98,1.33 -2.57,2.35 -0.01,0.02 -0.14,0.28 -0.16,0.31 -0.7,1.21 -2.04,1.66 -2.98,2.64 -0.55,0.58 -1.14,1.82 -2.32,2.83 -0.53,0.46 -0.13,0.13 -0.71,0.46l-1.32 1.25c-0.62,1.08 -2,2.94 -3.36,2.97 -0.02,0.7 -0.31,1.05 -0.81,1.53l-6.69 6.66c-0.04,0.03 -0.1,0.06 -0.15,0.09l-0.78 0.15c-0.03,1.39 -2.2,2.9 -3.05,3.75l-6.57 7.01c-0.35,0.51 -0.96,0.8 -1.46,1.11 -1.02,0.64 -1.25,1.15 -1.57,1.71l-1.16 1.42c-0.07,0.06 -0.28,0.22 -0.4,0.3l-4.51 1.58c-0.54,0.01 -1.12,-0.01 -1.66,-0.02 -110.17,-0.2 -220.33,0 -330.5,0 -1.09,0 -2.18,0.01 -3.28,0 -2.1,0 -3.76,0.1 -4.99,2.03l-0.86 1.72c-0.03,0.05 -0.06,0.11 -0.08,0.16l-1.21 2.77c-0.78,2.24 -0.35,7.55 -0.35,9.95l0.01 29.51c0.12,0.86 0.15,0.55 0.21,0.72 0.68,1.95 1.28,2.5 1.95,4.37 0.02,0.06 0.04,0.12 0.06,0.18 0.02,0.06 0.04,0.12 0.05,0.18 0.23,0.73 0.59,1.06 1.11,1.7 0.29,0.37 0.17,0.09 0.36,0.59l280.6 0c0.25,-0.61 -0.01,-0.34 0.7,-0.48 0.12,-0.02 1.2,0 1.4,0 0.86,0.02 1.73,0.01 2.59,0.01l0.22 0.48c0.26,0.51 0.2,0.72 0.71,0.92l0 0.94c-0.94,0.38 -0.12,-0.3 -0.53,0.87l-0.32 0.86c-0.43,0.93 -0.89,1.88 -1.8,2.41l-2.63 1.82c-0.34,0.34 -0.09,0.05 -0.35,0.36 -0.49,0.58 -0.65,1.29 -1.27,1.77 -0.52,0.4 0.3,-0.18 -0.29,0.18l-1.25 0.86c0,0 -0.22,0.23 -0.34,0.35 -0.17,0.17 -0.4,0.38 -0.48,0.47 -0.83,0.89 -1.08,1.87 -2.14,2.54l-2.26 2.19c-0.5,0.85 -1.41,1.7 -2.27,2.19 -1.52,0.86 -2.22,3.07 -4.06,4.13 -0.87,0.51 -1.24,1.12 -1.81,1.94 -0.04,0.05 -0.16,0.21 -0.21,0.26l-3.83 3.66c-0.88,1.5 -2.13,2.19 -3.05,2.8 -0.75,0.51 -0.58,0.96 -1.2,1.62l-1.64 1.63c-1.29,1.28 -5.78,5.3 -6.68,6.91 -0.03,0.05 -0.05,0.11 -0.08,0.15 -0.58,1.02 -2.31,1.84 -3.21,2.89l-1.88 2.33c-0.04,0.03 -0.1,0.06 -0.15,0.09 -0.04,0.02 -0.1,0.05 -0.15,0.08 -1.48,0.86 -1.69,1.86 -3.31,3.49l-2.36 1.85c-0.11,0.13 -0.28,0.32 -0.32,0.38l-0.33 0.6c-0.21,0.36 -0.01,0.09 -0.27,0.44l-0.82 0.82c-0.1,0.11 -0.26,0.28 -0.35,0.36l-0.52 0.41c-2.08,1.3 -1.21,1.31 -2.76,2.86 -1.29,1.29 -1.74,1.07 -2.71,2.21l-2.49 2.89c-0.59,0.37 -1.18,0.67 -1.55,1.26l-0.33 0.61c-0.03,0.04 -0.07,0.1 -0.1,0.14l-0.5 0.67c-0.36,0.58 -0.44,0.91 -1.09,1.25l-3.24 1.45c-2.13,0.7 -5.28,0.41 -7.79,0.41l-210.27 0.29 -1.55 0.8c-0.04,0.03 -0.1,0.07 -0.14,0.1l-1.07 1.03c-0.11,0.15 -0.94,1.14 -1.46,2.29l-0.48 1.4c-0.67,1.9 -0.28,9.56 -0.28,11.89 0,3.71 -0.24,25.64 0.01,27.39 0.07,0.55 0.07,0.35 0.14,0.56 0.02,0.08 0.11,0.27 0.13,0.34l0.96 2.79c0,0 0.2,0.35 0.25,0.45 0.71,1.36 0.09,2.16 1,3.92 0.26,0.49 0.04,-0.13 0.32,0.62l155.29 0c1.44,0 2.14,-0.02 3.38,-0.37 0.91,-0.26 4.27,-0.23 5.31,-0.12 1.43,0.14 0.63,-0.21 0.92,0.49 0.66,0.27 0.56,1.11 0.49,1.87l-0.57 1.57c-1.62,3.14 -2.4,2.03 -4.26,3.93l-1.05 1.06c-0.62,0.62 -1.27,1.09 -1.59,1.93 -0.42,1.1 0.51,0.47 -0.52,0.88l0 0.94c0.51,0.21 0.46,0.41 0.71,0.92l0.23 0.48c0.02,0.05 0.05,0.11 0.08,0.16l1.06 1.75c0.03,0.04 0.07,0.1 0.09,0.14 1.03,1.61 4.53,5.33 6.11,6.07 0.79,0.38 0.81,0.1 1.09,0.79l3.75 0c0.07,-0.21 0.33,-0.92 1.4,-0.94 0.03,-1.2 0.16,-0.91 0.69,-1.42l1.02 -1.08c0.19,-0.31 0.09,-0.2 0.25,-0.47 0.02,-0.04 0.05,-0.1 0.08,-0.14l0.3 -0.41c0.27,-0.32 0.01,-0.02 0.35,-0.35l2.58 -2.57c2.2,-2.2 15.2,-14.66 16.35,-16.68 0.02,-0.05 0.05,-0.11 0.07,-0.16 0.33,-0.51 0.68,-0.6 1.27,-0.61 0.02,-1.17 0.23,-1.38 1.4,-1.41 0.03,-1.1 1.14,-1.84 1.88,-2.57 10.89,-10.9 21.63,-21.91 32.67,-32.68l1.05 -1.3c0.34,-0.64 0.65,-0.91 1.41,-0.92 0.02,-0.73 0.28,-1.04 0.81,-1.54l30.23 -30.2c0.46,-0.46 1.31,-1.04 1.6,-1.68 0.02,-0.05 0.04,-0.12 0.06,-0.17 0.12,-0.35 0.08,-0.21 0.09,-0.61 1.17,-0.03 1.67,-1.44 2.93,-2.69l19.45 -19.44c0.01,0 0.41,-0.51 0.41,-0.52 0.03,-0.04 0.06,-0.11 0.09,-0.15l2.44 -2.71c0.04,-0.03 0.1,-0.07 0.14,-0.09l1.48 -1.1c1.07,-1.1 2.4,-2.07 3.26,-3.3l30.45 -30.92c0.03,-0.04 0.06,-0.1 0.09,-0.15l0.31 -0.62c0.31,-0.48 0.7,-0.6 1.26,-0.62 0.01,-0.63 -0.07,-0.31 0.15,-0.78l0.78 -0.86c7.89,-7.52 15.36,-15.35 23.08,-23.07 1.43,-1.43 2.72,-2.72 4.09,-4.1l3.75 -4.45c1.32,-0.03 1.52,-1.31 2.34,-2.11 0.79,-0.77 1.57,-1.56 2.35,-2.34l29.86 -29.86c0.47,-0.47 0.7,-0.7 1.18,-1.16 0.53,-0.51 0.8,-0.83 0.81,-1.53 1.17,-0.03 1.38,-0.24 1.41,-1.41 1.31,-0.03 1.51,-1.31 2.34,-2.11 3.9,-3.8 27.31,-26.93 28.02,-28.19 0.41,-0.72 0.67,-0.8 1.34,-1.24 0.62,-0.41 0.88,-1.3 1.67,-2.07 0.55,-0.53 1.21,-1.52 1.92,-1.84l0.78 -0.15c0.02,-0.78 0.38,-1.12 0.93,-1.65l26.94 -26.93c0.08,-0.07 0.43,-0.4 0.48,-0.46l33.6 -34.09c0.22,-0.21 0.27,-0.26 0.47,-0.46 0.3,-0.3 -0.07,0.05 0.24,-0.24 0.57,-0.55 1.03,-0.94 1.05,-1.76l0.94 0c0.01,-0.71 0.3,-1.05 0.8,-1.53 0.04,-0.03 0.09,-0.08 0.13,-0.11l0.94 -0.93c10.77,-10.78 21.41,-21.67 32.33,-32.32 0.01,-0.01 0.35,-0.35 0.35,-0.35l0.5 -0.67c0.12,-0.21 0.04,-0.1 0.16,-0.31l1.01 -1.1c0.05,-0.02 0.12,-0.05 0.17,-0.06 0.35,-0.12 0.22,-0.09 0.61,-0.09 0.02,-0.78 0.38,-1.12 0.94,-1.65 0.03,-0.03 0.08,-0.08 0.12,-0.11 7.81,-7.52 15.27,-15.27 22.95,-22.95l7.69 -7.77c0.03,-0.05 0.05,-0.12 0.07,-0.17 0.12,-0.35 0.08,-0.22 0.09,-0.61 0.58,-0.02 0.92,-0.08 1.26,-0.62l32.72 -33.56c0.07,-0.1 0.35,-0.41 0.44,-0.5l15.47 -15.45c0.62,-0.62 1.25,-1.25 1.87,-1.87 0.68,-0.67 1.32,-1.42 2.11,-1.88 0.05,-0.02 0.11,-0.05 0.16,-0.08l1.84 -1.67c0.48,-0.47 0.01,0.09 0.46,-0.47 0.86,-1.07 1.49,-3.17 1.08,-4.35l-0.35 -1.06c-0.02,-0.06 -0.05,-0.12 -0.07,-0.17 -0.24,-0.46 -0.88,-0.79 -1.09,-1.25l-0.15 -0.79c-0.4,0 -0.26,0.04 -0.62,-0.09 -0.99,-0.36 -4.23,-4.03 -5,-4.82 -0.08,-0.09 -0.17,-0.19 -0.35,-0.36l-0.76 -0.64c-0.46,-0.32 -0.56,-0.12 -0.77,-0.64l-3.28 0c-0.2,0.55 -0.48,0.74 -0.93,1.17 -0.74,0.71 -1.38,0.84 -1.41,2.11 -0.26,0 -0.22,-0.02 -0.43,0.04l-0.37 0.1c-0.36,0.18 -0.52,0.63 -0.69,0.94 -0.03,0.05 -0.06,0.11 -0.09,0.15l-1.02 1.56c-1.1,1.59 -2.74,1.69 -4.04,3.92l-8.05 8.11c-0.02,0.05 -0.06,0.11 -0.09,0.15 -0.19,0.28 -0.45,0.5 -0.67,0.72 -0.06,0.05 -0.22,0.22 -0.35,0.36l-1.37 0.97c-0.05,0.03 -0.11,0.06 -0.15,0.09l-0.79 0.85c-0.03,0.04 -0.06,0.11 -0.08,0.15 -0.03,0.05 -0.05,0.11 -0.08,0.16 -0.03,0.04 -0.05,0.11 -0.08,0.15 -0.03,0.05 -0.06,0.11 -0.08,0.15l-2.17 2.29c-0.52,0.53 -0.21,0.66 -1.42,0.69 -0.01,0.64 -0.1,0.83 -0.56,1.3l-0.49 0.45c-0.32,0.31 -0.33,0.33 -0.58,0.59 -0.29,0.29 -0.18,0.23 -0.47,0.47l-0.4 0.3c-2.03,1.27 -1.35,1.45 -3.12,3.21l-0.92 0.95c-0.05,0.05 -0.48,0.45 -0.49,0.45 -0.04,0.03 -0.1,0.06 -0.15,0.09l-1.02 1.08c-0.02,0.05 -0.07,0.1 -0.1,0.14 -0.69,0.94 -1.77,1.74 -2.59,2.56 -0.83,0.83 -1.73,1.61 -2.3,2.61l-1.65 1.41c-0.65,0.44 -1.04,1.32 -1.47,2.04 -0.9,1.5 -2.21,2.62 -4.08,2.53 -1.35,-0.06 -0.9,0.14 -1.16,-0.51 -0.72,-0.29 -0.49,-1.25 -0.47,-2.1 0.22,-12.96 0,-25.93 0,-38.89 0,-29.35 0.26,-58.72 0,-88.07 0,-0.33 -0.02,-0.89 0,-1.19 0.08,-0.75 0.29,-0.99 0.12,-1.7 -0.3,-1.22 0.11,-2.84 -0.21,-4.04l-1.07 -3.15c-0.03,-0.04 -0.05,-0.11 -0.08,-0.15l-2.97 -4.53c-0.03,-0.04 -0.06,-0.1 -0.08,-0.15l-0.94 -1.41c-0.2,-0.34 -0.01,-0.09 -0.27,-0.43l-2.14 -1.6c-0.09,-0.05 -0.3,-0.16 -0.47,-0.24l-3.14 -1.31c-0.05,-0.02 -0.11,-0.05 -0.15,-0.08l-1.22 -1.36c-0.06,-0.31 -0.03,-1.03 -0.03,-1.38l-613.21 0 0 1.87z"/>
   <path class="fil0" d="M771.06 229.93c-1.16,0.03 -2.02,1.34 -2.81,2.11 -0.01,0.01 -0.36,0.34 -0.36,0.34 -0.9,0.97 -0.83,1.56 -2.13,2.32 -0.05,0.02 -0.11,0.05 -0.16,0.08 -0.04,0.03 -0.1,0.06 -0.14,0.09l-3.06 3.5c-0.05,0.05 -0.2,0.17 -0.26,0.21l-3.72 3.78c-0.85,0.83 -1.98,1.18 -2.65,2.26l-0.86 1.25c-0.05,0.05 -0.19,0.18 -0.24,0.23 -0.86,0.85 -2.13,1.36 -2.73,2.42l-1.02 1.33c-0.25,0.24 -0.29,0.28 -0.59,0.58 -1.26,1.29 -1.42,0.71 -2.39,2.29 -0.24,0.4 -0.7,0.81 -1,1.11l-8.08 8.08c-0.73,0.72 -3.63,3.29 -4.1,4.1l-0.15 0.32c-0.11,0.35 -0.08,0.22 -0.09,0.61 -0.71,0.02 -1.05,0.31 -1.53,0.81 -0.03,0.04 -0.08,0.09 -0.11,0.12l-1.47 1.58c-0.43,0.68 -0.79,1.32 -1.46,1.83 -0.1,0.08 -1.51,0.86 -2.1,1.64 -0.82,1.06 -1.32,2.13 -2.54,2.84l-0.46 0.25c-1.08,0.67 -1.42,1.8 -2.26,2.65l-2.76 2.64c-0.8,1.32 -2.51,2.61 -3.58,3.68 -0.54,0.54 -17.41,17 -17.71,17.89 -0.11,0.35 -0.08,0.21 -0.09,0.61 -0.66,0.02 -0.95,0.21 -1.42,0.69l-1.39 1.42c-1.51,1.47 -0.29,1.21 -2.02,2.19l-1.14 0.97c-0.3,0.3 -0.34,0.34 -0.59,0.58l-0.77 0.87c-0.67,1.06 -1.29,1.68 -2.34,2.35l-2.62 3c-0.91,0.9 -2.05,1.3 -2.7,2.45 -0.33,0.58 0,0.18 -0.46,0.71l-2.68 2.48c-0.35,0.12 -0.21,0.08 -0.61,0.09 -0.02,1.21 -1.34,2.05 -2.11,2.81l-6.45 6.44c-0.03,0.03 -0.08,0.07 -0.12,0.11 -0.53,0.52 -0.66,0.21 -0.69,1.42 -1.07,0.02 -1.74,1.03 -2.46,1.75l-1.06 1.05c-0.09,0.09 -0.38,0.4 -0.44,0.5 -0.03,0.04 -0.06,0.1 -0.09,0.14l-1.4 1.41c-0.77,0.47 -1.45,1.37 -2.05,1.94 -0.03,0.03 -0.08,0.07 -0.12,0.11l-0.57 0.6c-0.03,0.04 -0.06,0.1 -0.09,0.15 -0.02,0.05 -0.04,0.11 -0.06,0.17 -0.11,0.35 -0.08,0.21 -0.09,0.61l-0.93 0.24c-0.05,0.02 -0.1,0.07 -0.14,0.09 -0.04,0.03 -0.08,0.09 -0.12,0.12l-0.45 0.48c-0.16,0.16 -0.31,0.32 -0.47,0.47 -0.06,0.07 -0.43,0.42 -0.48,0.46l-0.52 0.65c-0.03,0.04 -0.06,0.1 -0.09,0.15l-0.24 0.46c-0.56,0.89 -1.22,1.29 -1.56,1.48l-1.22 0.89c-0.51,0.51 0,-0.11 -0.45,0.48l-0.36 0.59c-0.33,0.59 -1.45,2.04 -2.66,2.73 -0.06,0.03 -0.25,0.11 -0.31,0.15 -0.62,0.37 -0.58,0.54 -0.86,1.02 -0.02,0.04 -0.05,0.11 -0.08,0.15l-0.89 0.98c-0.64,0.64 -1.51,1.92 -2.38,2.31 -0.47,0.21 -0.14,0.14 -0.78,0.15 -0.03,1.21 -0.15,0.91 -0.69,1.42l-5.17 5.14c-1.06,1.07 -2.04,2.04 -3.16,3.16 -0.58,0.58 -1,1.01 -1.52,1.53 -1.76,1.75 -2.42,2.88 -2.46,2.92l-0.89 0.52c-1.13,0.69 -6.22,5.99 -6.64,6.71l-5 5.31c-0.29,0.3 -0.17,0.22 -0.46,0.47 -0.9,0.78 -1.76,0.97 -2.42,2.03l-0.63 1.02c-0.55,0.66 -1.13,0.91 -1.86,1.41l-0.73 0.67c-0.17,0.17 -0.09,0.04 -0.34,0.37l-1.88 2.34c-4.8,4.79 -9.49,9.72 -14.4,14.4 -0.55,0.52 -0.92,0.82 -0.94,1.65 -0.76,0.01 -1.14,0.4 -1.64,0.93 -0.05,0.05 -0.18,0.19 -0.23,0.24l-1.06 1.05c-0.3,0.29 0.07,-0.06 -0.23,0.23 -0.03,0.04 -0.09,0.08 -0.12,0.12l-0.84 1.03c-0.12,0.35 -0.08,0.22 -0.09,0.61l-3.74 3.29c-0.43,0.76 -1.4,1.17 -2.71,2.45l-1.3 1.74c-0.04,0.06 -0.17,0.21 -0.21,0.26l-1.72 1.33c-0.78,0.48 0.41,-0.34 -0.28,0.18l-3.26 3.77c-0.07,0.06 -0.49,0.4 -0.52,0.41 -0.48,0.21 -0.14,0.14 -0.79,0.16 -0.03,1.37 -2.06,2.76 -2.93,3.63l-17.21 17.21c-0.12,0.13 -0.15,0.16 -0.35,0.35l-0.89 0.99c-0.55,0.9 -0.53,0.87 -1.41,1.4l-0.64 0.53c0,0.01 -0.23,0.25 -0.34,0.36l-1.74 1.78c-0.03,0.04 -0.06,0.1 -0.09,0.14 -0.33,0.53 -0.47,0.99 -0.97,1.37l-4.51 4.4c-0.58,0.36 -1.18,0.66 -1.55,1.26l-0.51 0.89c-1.93,2.49 -17.23,16.72 -20.27,20.25l-0.29 0.41c-0.31,0.49 -0.61,1.12 -1.12,1.46 -1.36,0.93 -2.07,1.46 -2.96,2.9 -0.67,1.1 -1.7,1.31 -2.19,1.79l-2.67 3.18c-0.33,0.33 -0.03,0.07 -0.36,0.35l-0.55 0.38c-1.14,0.64 -1.06,1.23 -2.38,2.54 -0.34,0.34 -0.54,0.54 -0.82,0.82 -3.15,3.15 -18.49,18.09 -19.28,19.37 -0.82,1.35 -0.63,0.79 -1.68,1.6 -1.71,1.31 -3.39,3.41 -5.04,5.03l-1.4 1.88c-0.95,1.13 -1.51,0.89 -2.71,2.21l-0.74 1.14c-0.84,1.34 -19.95,20.03 -20.1,20.18 -2.26,2.27 -4.29,4.3 -6.56,6.56l-1.97 2.01c-0.02,0.04 -0.06,0.11 -0.08,0.15 -0.03,0.04 -0.06,0.11 -0.09,0.15 -0.03,0.06 -0.11,0.26 -0.15,0.32 -0.23,0.38 0.06,0.07 -0.28,0.41 -0.53,0.53 -2.09,1.21 -3.14,2.72 -0.03,0.04 -0.07,0.1 -0.09,0.15l-0.25 0.46c-0.58,1 -1.32,1.33 -2.24,1.97 -0.06,0.04 -0.26,0.2 -0.38,0.32l-2.68 3.18c-0.07,0.06 -0.28,0.22 -0.4,0.3 -0.4,0.24 -0.26,0.07 -0.62,0.31 -0.7,0.47 -0.35,0.3 -0.71,0.94 -0.8,1.42 -19.34,19.51 -19.82,19.99 -1.1,1.09 -2.19,2.19 -3.28,3.28l-3.04 3.52c-0.52,0.51 -1.35,0.76 -2.24,1.74 -0.04,0.04 -0.41,0.51 -0.42,0.52l-1.44 1.84c-0.33,0.33 -0.03,0.07 -0.35,0.35 -0.84,0.71 -1.09,0.41 -1.73,1.55 -0.03,0.05 -0.05,0.11 -0.08,0.15 -0.79,1.3 -5.86,5.96 -6.86,6.96l-16.87 16.86c-0.87,0.85 -1.46,1.97 -2.33,2.83 -0.09,0.08 -0.4,0.37 -0.5,0.44 -0.04,0.02 -0.1,0.06 -0.14,0.09 -0.05,0.02 -0.11,0.05 -0.15,0.08 -0.05,0.03 -0.11,0.05 -0.16,0.08 -1.07,0.6 -1.25,1.52 -2.34,2.58 -0.17,0.17 -0.3,0.29 -0.47,0.46l-0.82 0.82c-0.35,0.27 -0.06,0.06 -0.43,0.27 -1.09,0.62 -1.17,1.36 -2.02,2.2l-5.73 5.75c-0.48,0.46 -0.66,0.55 -1.31,0.57 -0.02,1.26 -0.48,1.2 -1.17,1.87l-15.85 16.23c-0.43,0.69 -1.15,1.04 -2.3,1.92l-4.72 4.65c-0.47,0.21 -0.14,0.14 -0.78,0.16 -0.03,1.25 -0.2,0.66 -0.68,1.43l-0.22 0.48c-0.6,1.59 -0.97,3.73 -0.36,5.44l0.55 1.08c0.28,0.58 0.46,1.03 1,1.34l0.64 0.3c1.08,0.5 1.15,1.14 2.35,1.17 0,0.39 -0.04,0.26 0.09,0.61l6.23 6.42c0.8,0.8 1.8,1.51 2.41,2.5 1.01,1.65 0.74,0.78 1.81,1.7l2.41 2.52c0.5,0.8 0.92,1.32 1.72,1.79 0.36,0.21 0.09,0 0.43,0.27l2.01 2.91c0,0 0.4,0.46 0.44,0.5 0.03,0.03 0.08,0.08 0.12,0.12l0.75 0.65c0.07,0.04 0.59,0.33 0.6,0.33 1,0.47 3.42,0.49 4.54,0.2l0.51 -0.2c0.05,-0.02 0.11,-0.04 0.17,-0.06l1.06 -0.34c1.37,-0.56 1.78,-1.76 2.7,-2.69 0.47,-0.48 0.56,-0.65 0.57,-1.3 0.63,-0.02 0.32,0.06 0.79,-0.16 0.03,-0.02 0.45,-0.34 0.52,-0.41l0.45 -0.49c0.31,-0.32 0.32,-0.32 0.59,-0.58l0.85 -1.02c0.02,-0.03 0.15,-0.28 0.16,-0.31 0.03,-0.04 0.06,-0.11 0.08,-0.15 0.57,-0.91 1.22,-1.29 1.56,-1.49l1.34 -1c0.06,-0.06 0.41,-0.46 0.44,-0.5 0.02,-0.04 0.06,-0.1 0.09,-0.15 1.47,-2.36 3.37,-3.07 3.91,-4.04l0.93 -1.19c0.22,-0.21 0.31,-0.3 0.59,-0.58 1.61,-1.6 19.5,-19.11 19.87,-19.94l0.16 -0.79c1.2,-0.02 0.9,-0.15 1.42,-0.68l1.69 -1.82c0.19,-0.3 0.09,-0.19 0.24,-0.46l1.64 -1.64c0.77,-0.45 1.5,-1.02 1.95,-1.8l2.12 -2.33c0.3,-0.19 0.19,-0.09 0.46,-0.25 0.36,-0.2 0.09,0 0.44,-0.26 0.4,-0.31 0.13,-0.09 0.36,-0.34l1.26 -1.78c3.96,-3.9 7.73,-7.72 11.6,-11.59 1.93,-1.92 3.76,-3.76 5.74,-5.74 1.38,-1.37 5.71,-5.31 6.52,-6.6 0.02,-0.05 0.05,-0.11 0.08,-0.16l1.48 -1.55c0.05,-0.03 0.11,-0.06 0.16,-0.09 0.04,-0.02 0.11,-0.05 0.15,-0.08 1.28,-0.8 1.88,-2.28 2.84,-3.25l1.22 -0.88c0.36,-0.21 0.09,-0.01 0.44,-0.27l3.03 -3.53c0.32,-0.33 0,-0.06 0.34,-0.36l0.41 -0.29c0.47,-0.21 0.14,-0.14 0.78,-0.15l1.29 -2c0.66,-0.65 1.16,-1.16 1.76,-1.75 1.17,-1.17 2.34,-2.34 3.51,-3.52 2.31,-2.31 4.54,-4.54 6.91,-6.91 1.78,-1.77 6.54,-6.18 7.73,-7.73 0.27,-0.35 0.05,-0.05 0.27,-0.43 0.03,-0.06 0.12,-0.25 0.15,-0.32 0.45,-0.75 2.7,-1.87 3.6,-3.42 0.16,-0.28 0,-0.04 0.16,-0.31 0.21,-0.36 0,-0.09 0.27,-0.44l1.06 -0.81c0.04,-0.03 0.1,-0.06 0.15,-0.08 0.04,-0.03 0.11,-0.06 0.15,-0.09l2.29 -2.63c0.04,-0.05 0.16,-0.2 0.21,-0.26 1.37,-1.59 2.9,-2.33 3.21,-2.87l0.24 -0.47c1.12,-1.82 20.85,-20.54 21.23,-21.4 0.21,-0.47 0.14,-0.14 0.15,-0.78 1.21,-0.03 0.91,-0.16 1.42,-0.69l2.08 -2.14c1.55,-2.27 0.74,-0.69 2.72,-2.67l2.53 -2.85c1.21,-0.7 2.14,-1.79 2.5,-2.42 1.03,-1.82 19.69,-19.84 24.13,-24.35 0.18,-0.19 0.06,0 0.34,-0.37l4.27 -4.63c0.02,-0.05 0.06,-0.11 0.09,-0.15 0.66,-0.96 1.6,-1.22 2.45,-2l0.88 -0.99c0.03,-0.04 0.06,-0.11 0.08,-0.15l1.84 -2.15c0.66,-0.5 -0.47,0.28 0.28,-0.18 0.04,-0.03 0.11,-0.06 0.15,-0.09l0.61 -0.32c0.61,-0.5 0.49,-0.92 1.06,-1.52l3.64 -2.92c0.01,-0.63 -0.07,-0.32 0.15,-0.79 0.03,-0.05 0.49,-0.59 0.53,-0.63l0.25 -0.23c0.01,-0.01 0.26,-0.25 0.35,-0.35 0.27,-0.26 0.39,-0.38 0.59,-0.58l6.79 -6.79c1.49,-1.49 2.97,-2.97 4.45,-4.45 0.89,-0.89 4.19,-3.53 4.22,-4.92 0.39,-0.01 0.26,0.04 0.61,-0.09 0.05,-0.02 0.12,-0.04 0.17,-0.06l0.53 -0.42c0.03,-0.03 0.07,-0.08 0.11,-0.12l1.51 -1.53c0.53,-0.52 0,0.13 0.46,-0.48 0.51,-0.65 -0.27,0.47 0.19,-0.28l1.73 -1.79c0.04,-0.02 0.1,-0.05 0.15,-0.08 0.85,-0.53 1.62,-1.48 2.12,-2.33 0.78,-1.35 1.68,-1.81 2.56,-2.35 0.94,-0.57 2.15,-3.26 3.6,-3.9 0.47,-0.22 0.14,-0.14 0.78,-0.16 0.03,-1.2 1.42,-2.11 2.22,-2.93l2 -1.28c0.02,-1.25 -0.03,-0.58 0.33,-1.07 0.82,-1.12 4.56,-4.53 5.64,-5.61 2.22,-2.22 4.28,-4.28 6.44,-6.44 1.06,-1.05 3.92,-3.48 4.76,-4.85 1.23,-2.02 0.66,-0.52 2.27,-2.17 0.3,-0.31 0.47,-0.47 0.82,-0.82 0.63,-0.62 0.88,-1.36 1.51,-2.01l2.59 -2.09c0.73,-0.86 1.21,-1.83 2.1,-2.59l1.02 -0.62c0.32,-0.2 0.66,-0.52 0.84,-0.79 0.03,-0.04 0.07,-0.1 0.09,-0.15l0.16 -0.31c0.5,-0.88 1.41,-1.83 2.23,-2.46 0.66,-0.5 -0.47,0.28 0.28,-0.18 0.87,-0.53 0.8,-0.41 1.4,-1.41 0.03,-0.04 0.07,-0.1 0.09,-0.14l0.56 -0.62c5.44,-5.36 10.64,-10.87 16.18,-16.14l0.66 -0.75c0.21,-0.47 0.14,-0.14 0.15,-0.78 0.71,-0.02 1.05,-0.31 1.53,-0.81l1.06 -1.06c0.67,-0.68 0.93,-1.66 1.79,-2.19l0.31 -0.16c0.04,-0.02 0.11,-0.05 0.15,-0.08 0.05,-0.02 0.11,-0.05 0.15,-0.08l1.96 -2.03c0.02,-0.02 0.14,-0.28 0.16,-0.31l0.49 -0.67c0.66,-0.72 1.55,-1.06 2.25,-1.73 0.8,-0.77 0.52,-0.58 1.09,-1.49l2.96 -2.66c0.02,-0.01 0.46,-0.46 0.47,-0.47 0.03,-0.04 0.06,-0.11 0.08,-0.15l0.89 -1.23c0.28,-0.28 0.37,-0.36 0.59,-0.58 0.78,-0.78 1.56,-1.56 2.34,-2.34 0.54,-0.54 17.42,-17 17.71,-17.89 0.12,-0.35 0.08,-0.22 0.09,-0.61 1.04,-0.03 1.66,-0.96 2.35,-1.64l0.68 -0.72c0.03,-0.04 0.06,-0.1 0.09,-0.15l0.97 -1.37c0.95,-0.95 1.63,-0.7 2.69,-2.23 0.8,-1.16 1.52,-2.16 2.75,-2.87l0.29 -0.18c0.24,-0.16 0.38,-0.3 0.62,-0.55l0.64 -0.76c0.19,-0.3 0.09,-0.19 0.25,-0.46 0.88,-1.52 3.12,-2.64 3.59,-3.43l0.43 -0.75c1.18,-1.54 10.63,-10.63 13.23,-13.23l2.69 -2.7c0.04,-0.03 0.09,-0.08 0.13,-0.11l0.69 -0.71c0.03,-0.04 0.06,-0.1 0.08,-0.15l0.16 -0.78c0.66,-0.02 0.95,-0.21 1.42,-0.69 0.03,-0.04 0.08,-0.09 0.11,-0.12 0.03,-0.04 0.08,-0.09 0.11,-0.13l0.94 -0.94c0.04,-0.04 0.18,-0.18 0.23,-0.23l0.58 -0.59c0.77,-1 0.13,-0.86 1.44,-1.6l5.13 -4.95c0.03,-0.03 0.08,-0.08 0.11,-0.12l2.57 -3.05c0.05,-0.05 0.19,-0.19 0.24,-0.24l1.49 -1.08c0.55,-0.37 0.36,-0.32 0.62,-0.78 0.46,-0.82 2.24,-2.9 3.13,-3.19 0.36,-0.12 0.22,-0.09 0.61,-0.09 0.03,-1.27 0.49,-1.21 1.18,-1.88 0.55,-0.54 1.09,-1.09 1.64,-1.64 1.06,-1.07 2.04,-2.04 3.16,-3.16 1.62,-1.62 9.77,-9.4 11.01,-11.01l0.42 -0.75c0.39,-0.67 0.57,-0.57 1.17,-0.94 1.13,-0.69 2,-1.86 2.67,-2.95l2.89 -2.49c0.17,-0.18 0.07,-0.02 0.34,-0.37l0.43 -0.74c0.03,-0.04 0.06,-0.1 0.09,-0.15l0.76 -0.88c0.06,-0.05 0.46,-0.4 0.5,-0.43l4.36 -4.31c0.9,-0.56 1.32,-0.98 1.87,-1.87 0.83,-1.33 10.03,-10.12 11.2,-11.29l4.69 -4.68c0.09,-0.09 0.34,-0.34 0.35,-0.35 0.03,-0.04 0.09,-0.08 0.12,-0.11 0.04,-0.04 0.09,-0.08 0.13,-0.11l1.47 -1.58c0.7,-0.33 1.36,-1.3 1.91,-1.84 0.3,-0.3 0.4,-0.35 0.59,-0.57 0.47,-0.56 0.37,-0.94 0.94,-1.41l3.38 -2.94c0.51,-0.65 -0.27,0.47 0.19,-0.27 1.03,-1.65 0.99,-1.08 2.28,-2.18 1.41,-1.19 1.7,-2.74 3.51,-3.75l0.3 -0.16c0.18,-0.11 0.31,-0.2 0.42,-0.29l2.91 -3.42c2.58,-2.58 18.46,-18.83 20.14,-20.14l0.74 -0.44c0.04,-0.02 0.1,-0.06 0.14,-0.08 0.05,-0.03 0.1,-0.07 0.14,-0.1 0.03,-0.02 0.24,-0.23 0.38,-0.32 0.51,-0.35 -0.37,-0.32 1.06,-0.35 0.02,-1.04 0.25,-1.6 0.94,-1.87l0 -2.81c-0.88,-0.32 -1.21,-1.09 -2.02,-1.5 -2.57,-1.27 -5.46,-4.81 -7.35,-6.7 -1.46,-1.46 -2.82,-2.82 -4.33,-4.33 -0.74,-0.74 -3.69,-3.22 -4.01,-4.19 -0.12,-0.36 -0.08,-0.22 -0.09,-0.62 -0.67,-0.01 -0.96,-0.2 -1.42,-0.68l-2.08 -2.15c-0.36,-0.53 -0.46,-0.98 -1.02,-1.31l-1.24 -0.88c-0.48,-0.48 0,0.09 -0.45,-0.48 -0.43,-0.54 0.19,0.33 -0.2,-0.27l-1.16 -2.36c-0.38,-0.67 -0.89,-1.07 -1.62,-1.42 -0.44,-0.21 0.04,-0.06 -0.51,-0.21 -0.99,-0.27 -2.51,0.26 -3.2,0.85 -1.39,1.18 -1.43,1.98 -2.34,3.28 -0.16,0.23 -0.31,0.37 -0.56,0.61l-15.24 15.21c-0.81,0.81 -1.47,1.47 -2.22,2.23 -0.45,0.44 -1.45,1.16 -1.72,1.79 -0.03,0.05 -0.05,0.12 -0.07,0.17 -0.11,0.36 -0.08,0.22 -0.09,0.61z"/>
   <path class="fil0" d="M207.51 254.76c0.25,0.01 0.22,-0.02 0.43,0.04 0.6,0.18 0.74,0.26 0.97,0.9l3.75 0.47c0.3,-0.75 -0.17,-0.48 2.81,-0.47l102.36 0c104.56,0 209.32,0.23 313.86,0l2.54 0.04c0.65,0.21 0.25,-0.21 0.51,0.43l3.75 0c0.06,-0.17 2.28,-2.85 1.24,-5.93 -0.71,-2.12 -0.3,-22.57 -0.3,-25.69l0.01 -13.58c0.19,-1.35 0.98,-2.26 0.17,-4.64 -0.09,-0.26 -0.13,-0.49 -0.21,-0.73 -0.54,-1.55 -2.69,-1.69 -4.35,-1.13l-420.52 0.17c-2.57,0 -4.19,-0.44 -5.79,0.53l-2.09 2.6c-0.24,0.91 0.09,-0.86 -0.07,0.39l0.29 44.9c0.02,0.05 0.06,0.1 0.08,0.15l0.56 1.55z"/>
   <path class="fil0" d="M805.26 150.3c-1.01,0.02 -1.56,0.85 -2.22,1.52 -0.26,0.25 -0.21,0.21 -0.48,0.47 -0.81,0.79 -1.18,1.94 -2.15,2.53l-2.81 2.81c-0.01,0.01 -0.37,0.48 -0.41,0.52l-0.47 0.47c-0.69,0.63 -1.48,0.91 -2.13,1.62l-0.74 1.14c-0.24,0.39 -1.48,1.62 -1.87,1.87 -0.99,0.62 -1.25,0.88 -1.87,1.87l-2.96 2.67c-1.86,1.17 -2.41,3.3 -2,5.42 0.27,1.35 1.51,2.28 2.43,3.2l1.45 1.36c1.07,0.68 4.02,2.97 4.05,4.38l0.94 0 0.46 1.17c1.05,0.83 0.62,-0.08 1.58,1.48 0.15,0.26 0.34,0.46 0.52,0.64l0.6 0.58c10.41,10.3 20.55,20.8 31.04,31.03l2.68 3.17c0.55,0.58 0.31,0.79 1.53,0.81 0.03,1.22 0.23,0.99 0.81,1.53l10.2 10.18c1.87,1.88 3.75,3.75 5.62,5.63l3.76 4.67c0.54,0.66 0.19,0.17 0.85,0.55 0.4,0.24 0.07,-0.07 0.42,0.28 0.36,0.35 0.18,0.08 0.36,0.59l4.21 0c0.21,-0.51 0.47,-0.41 0.91,-0.73 0.04,-0.03 0.1,-0.07 0.14,-0.1l1.38 -1.67c0.68,-1.17 2.4,-2.58 3.08,-3.24 1.42,-1.39 1.37,-2.16 3.23,-3.33l1.73 -2.01c0.59,-0.94 1.69,-1.77 2.03,-1.96 0.04,-0.03 0.11,-0.06 0.15,-0.08 0.05,-0.03 0.11,-0.05 0.16,-0.08l1.88 -2.1c0.25,-0.41 0.7,-0.8 1.01,-1.1l0.93 -0.94c0.05,-0.05 0.2,-0.17 0.26,-0.21 0.04,-0.03 0.1,-0.07 0.14,-0.09 1.19,-0.73 0.58,-0.06 1.41,-1.41 0.46,-0.75 -0.32,0.38 0.19,-0.28 1.21,-1.58 3.52,-3.53 5.03,-5.03l7.64 -7.82c0.12,-0.36 0.08,-0.22 0.09,-0.62 1.2,-0.02 0.9,-0.15 1.42,-0.68 0.03,-0.04 0.08,-0.09 0.11,-0.13l1.91 -2.3c0.08,-0.12 0.24,-0.34 0.3,-0.41l1.73 -1.55c0.76,-0.42 0.83,-0.62 1.26,-1.31l0.85 -1.26c1.39,-2.74 1.75,-1.92 2.94,-3.62l1.15 -1.89c0.5,-1.43 0.87,-2.77 1.91,-3.95 0.22,-0.26 0.49,-0.46 0.72,-0.69l0.93 -1.41c0.03,-0.05 0.05,-0.11 0.08,-0.15l0.33 -0.62c0.53,-1.13 0.07,-1.5 0.59,-3.14 0.25,-0.78 0.09,-0.67 0.19,-1.46l0.19 -0.74c0.03,-0.05 0.06,-0.11 0.08,-0.16l0.33 -0.61c0.02,-0.04 0.05,-0.1 0.08,-0.15l1.17 -2.34 1.87 0 0 -24.83 -2.34 0 -0.7 -1.87c-0.03,-0.05 -0.06,-0.11 -0.08,-0.16l-0.25 -0.46c-0.38,-0.74 -0.24,-1.73 -0.42,-2.61 -0.28,-1.4 -0.09,0.35 -0.37,-1.04 -0.17,-0.85 -0.05,-1.85 -0.34,-2.47 -0.04,-0.06 -0.14,-0.24 -0.17,-0.3l-2.47 -3.15c-0.55,-0.68 -0.68,-1.49 -0.98,-2.3l-0.61 -1.26c-1.11,-2.21 -2.9,-3.41 -3.53,-4.67l-1.01 -2.04c-0.49,-0.79 -1.27,-0.97 -1.96,-1.55l-6.43 -5.99c-0.3,-0.3 -0.36,-0.39 -0.58,-0.59l-2.92 -1.77c-0.8,-0.21 -1.44,-0.19 -2.18,-0.63 -1.15,-0.7 -1.78,-1.98 -2.94,-2.68 -0.73,-0.44 -1.76,-0.52 -2.5,-0.77 -0.15,-0.05 0.12,-0.05 -0.52,-0.18l-4.02 -0.67c-0.05,-0.03 -0.11,-0.06 -0.15,-0.08l-4.75 -2.05 -3.69 -0.52c-1.7,-0.13 -0.8,-0.49 -3.74,-0.48 -1.75,0.01 -6.37,-0.29 -7.92,0.05 -0.77,0.17 -1.18,0.41 -2.4,0.41 -0.49,0 -0.61,-0.02 -1.06,0.11l-1.87 0.48c-0.06,0.01 -0.11,0.03 -0.17,0.05l-1.24 0.41c-0.88,0.3 -1.4,0.88 -2.19,1.32 -0.05,0.02 -0.11,0.05 -0.15,0.08 -0.05,0.02 -0.11,0.05 -0.16,0.07 -0.05,0.03 -0.12,0.05 -0.17,0.08 -0.05,0.02 -0.11,0.04 -0.16,0.06 -2.39,0.88 -2.7,0.31 -4.49,0.67l-1.03 0.37c-1.31,0.43 -2.05,0.96 -2.99,1.93 -0.02,0.03 -0.31,0.34 -0.34,0.36 -0.05,0.05 -0.19,0.19 -0.25,0.23 -0.86,0.69 -2.04,1.04 -3.06,1.39l-0.5 0.2c-0.07,0.03 -0.24,0.13 -0.31,0.16l-2.1 1.41c-0.25,0.25 -0.46,0.46 -0.7,0.7l-2.18 1.8c-2.03,0.97 -3.33,2.91 -4.96,4.42 -0.12,0.11 -0.32,0.28 -0.38,0.32 -0.04,0.03 -0.1,0.06 -0.14,0.09 -0.64,0.39 -0.89,0.48 -1.33,1.25l-0.97 1.14c-0.55,0.54 -0.86,0.86 -1.4,1.41 -1.91,1.9 -3.66,3.65 -5.51,5.5 -1,1 -4,3.67 -4.82,4.78 -0.36,0.5 -0.3,-0.17 -0.33,1.08z"/>
  </g>
 </g>
</svg>
